<svg width="12" height="14" viewBox="0 0 12 14" fill="none" xmlns="http://www.w3.org/2000/svg">
<path d="M8.98383 9.13388C8.8132 9.1842 8.56281 9.18988 8.29419 9.15095C8.00603 9.10909 7.71203 9.02101 7.42314 8.89122C7.93836 8.81626 8.33808 8.8393 8.67991 8.96049C8.761 8.98922 8.894 9.06593 8.98383 9.13388ZM6.10919 8.66124C6.08819 8.66693 6.06763 8.67233 6.04707 8.67801C5.90838 8.71578 5.77349 8.75253 5.64355 8.78535L5.46826 8.82982C5.11564 8.91907 4.75514 9.01022 4.39917 9.11872C4.5345 8.79235 4.6602 8.46247 4.78329 8.13989C4.87443 7.90117 4.96747 7.65719 5.06372 7.41642C5.11257 7.49707 5.16347 7.57771 5.21655 7.65865C5.45805 8.02658 5.76167 8.36681 6.10919 8.66124ZM5.21232 4.98147C5.23522 5.38411 5.1483 5.77144 5.02085 6.14302C4.86393 5.6835 4.79072 5.17615 4.98701 4.76651C5.03733 4.66151 5.0786 4.60537 5.10528 4.57606C5.14655 4.63993 5.20095 4.78255 5.21232 4.98147ZM3.37163 10.0821C3.28341 10.2399 3.19343 10.3876 3.10112 10.527C2.87843 10.8626 2.51429 11.2219 2.32719 11.2219C2.30881 11.2219 2.2865 11.219 2.25398 11.1846C2.23298 11.1625 2.22962 11.1468 2.23064 11.1254C2.23692 11.002 2.40039 10.7822 2.63722 10.5785C2.85218 10.3936 3.09514 10.2294 3.37163 10.0821ZM9.5797 9.15124C9.55112 8.74028 8.85929 8.47662 8.85243 8.47414C8.58498 8.37935 8.29448 8.33327 7.96432 8.33327C7.61082 8.33327 7.22976 8.38445 6.74035 8.49879C6.3049 8.19006 5.92865 7.80361 5.64763 7.37574C5.52353 7.18674 5.41197 6.99803 5.3147 6.8137C5.55211 6.24598 5.7659 5.63552 5.72711 4.95187C5.69576 4.40368 5.44857 4.03546 5.11243 4.03546C4.88187 4.03546 4.68325 4.20623 4.52181 4.54354C4.23379 5.14465 4.30948 5.91377 4.74668 6.83149C4.58918 7.20132 4.44291 7.58471 4.30131 7.956C4.12515 8.41756 3.94359 8.8937 3.73898 9.34665C3.16514 9.57371 2.69381 9.84904 2.30094 10.1871C2.04354 10.4082 1.73336 10.7461 1.71557 11.0988C1.70696 11.2649 1.76384 11.4173 1.87963 11.5394C2.00256 11.669 2.15715 11.7373 2.32704 11.7374C2.8882 11.7374 3.42822 10.9664 3.53059 10.8118C3.7368 10.5011 3.92973 10.1544 4.11888 9.75454C4.59516 9.58246 5.1028 9.45398 5.59469 9.32974L5.77086 9.28497C5.90328 9.25128 6.04094 9.21409 6.18211 9.17545C6.33158 9.13505 6.48529 9.0932 6.64148 9.05338C7.14664 9.37465 7.68986 9.58421 8.21967 9.66107C8.66591 9.72596 9.06229 9.68834 9.33047 9.54848C9.57197 9.42278 9.58539 9.22882 9.5797 9.15124ZM10.6664 12.685C10.6664 13.4377 10.003 13.484 9.86917 13.4857H1.31074C0.56087 13.4857 0.515662 12.8177 0.514203 12.685V1.31497C0.514203 0.561598 1.17876 0.515953 1.31074 0.514349H7.09224L7.0953 0.517411V2.77358C7.0953 3.22638 7.36903 4.08358 8.40575 4.08358H10.6472L10.6664 4.10283V12.685ZM10.135 3.56923H8.4059C7.65617 3.56923 7.61082 2.90497 7.6098 2.77358V1.03366L10.135 3.56923ZM11.1806 12.685V3.8905L7.6098 0.304788V0.288164H7.59274L7.30603 0H1.31074C0.857346 0 0 0.274893 0 1.31497V12.6852C0 13.1399 0.274018 14 1.31074 14H9.87005C10.3233 13.9999 11.1806 13.7251 11.1806 12.685Z" fill="#FF0000"/>
</svg>
