<svg width="14" height="14" viewBox="0 0 14 14" fill="none" xmlns="http://www.w3.org/2000/svg">
<g clip-path="url(#clip0_5_14)">
<path d="M6.99996 0C5.61549 0 4.26211 0.410542 3.11097 1.17971C1.95982 1.94888 1.06261 3.04213 0.532801 4.32122C0.0029872 5.6003 -0.135636 7.00777 0.13446 8.36563C0.404557 9.7235 1.07124 10.9708 2.05021 11.9497C3.02918 12.9287 4.27646 13.5954 5.63433 13.8655C6.99219 14.1356 8.39966 13.997 9.67874 13.4672C10.9578 12.9373 12.0511 12.0401 12.8202 10.889C13.5894 9.73785 14 8.38447 14 7C14 5.14348 13.2625 3.36301 11.9497 2.05025C10.637 0.737497 8.85647 0 6.99996 0ZM6.73732 2.82359C6.84019 2.82045 6.94264 2.83798 7.03862 2.87514C7.13459 2.91231 7.22213 2.96835 7.29606 3.03996L10.9132 6.45085C10.9897 6.52299 11.0505 6.61002 11.092 6.70658C11.1334 6.80314 11.1547 6.90717 11.1544 7.01226C11.1541 7.11734 11.1323 7.22126 11.0904 7.3176C11.0484 7.41394 10.9871 7.50065 10.9103 7.57239L7.28332 10.9624C7.13421 11.1017 6.93587 11.1761 6.73194 11.1692C6.528 11.1622 6.33517 11.0746 6.19587 10.9255C6.05656 10.7764 5.9822 10.578 5.98913 10.3741C5.99606 10.1701 6.08372 9.97731 6.23283 9.83801L8.44679 7.76937H3.38481C3.18075 7.76937 2.98505 7.68831 2.84076 7.54402C2.69646 7.39973 2.6154 7.20402 2.6154 6.99997C2.6154 6.79591 2.69646 6.6002 2.84076 6.45591C2.98505 6.31162 3.18075 6.23056 3.38481 6.23056H8.43692L6.24032 4.15975C6.12748 4.05633 6.04806 3.9216 6.01221 3.77279C5.97636 3.62399 5.98572 3.46787 6.03908 3.32441C6.09245 3.18095 6.18739 3.05667 6.31177 2.96747C6.43616 2.87827 6.58432 2.8282 6.73732 2.82366V2.82359Z" fill="#999999"/>
</g>
<defs>
<clipPath id="clip0_5_14">
<rect width="14" height="14" fill="white"/>
</clipPath>
</defs>
</svg>
